# xmcd CD database file generated by OrangeCD 5.2
#
# Track frame offsets:
#	150
#	18546
#	33980
#	54153
#	68302
#	84095
#	103273
#	120817
#	137840
#	154557
#	169680
#	186370
#
# Disc length: 2759 seconds
#
# Revision: 2
# Processed by: cddbd v1.5.1PL2 Copyright (c) Steve Scherf et al.
# Submitted via: OrangeCD 5.2
#
DISCID=870ac50c
DTITLE=The Deans - Whole Lot Of Shakin' Going On!
DYEAR=2006
DGENRE=Country
TTITLE0=Chuck Berry Medley
TTITLE1=Buddy Holly Medley 2
TTITLE2=Oh Carol Medley
TTITLE3=Teenage Heaven
TTITLE4=Write Myself A Letter
TTITLE5=Friends In Low Places
TTITLE6=Jim Reaves Medley 2
TTITLE7=You've Lost That Lovin' Feeling
TTITLE8=Girl Of My Best Friend
TTITLE9=Mr. Blue
TTITLE10=Whole Lot Of Shakin' Medley
TTITLE11=Pretty Woman Medley
EXTD=
EXTT0=
EXTT1=
EXTT2=
EXTT3=
EXTT4=
EXTT5=
EXTT6=
EXTT7=
EXTT8=
EXTT9=
EXTT10=
EXTT11=
PLAYORDER=
